<svg xmlns="http://www.w3.org/2000/svg" width="200" height="54" viewBox="0 0 200 54">
    <defs>
        <style>
            .cls-2{fill:#226bef}
        </style>
    </defs>
    <g id="그룹_70551" transform="translate(-143 -353)">
        <g id="header_logo" transform="translate(143 353)">
            <g id="그룹_1">
                <path id="패스_5767" fill="#fff" d="M0 0h200v54H0z" opacity="0.1"/>
                <g id="그룹_70550" transform="translate(0 4.545)">
                    <g id="그룹_69729">
                        <path id="패스_4074" d="M323.4 228.48a19.038 19.038 0 0 0-17.6 12.981c-1.593 5.5-1.1 10.2 1.436 13.564 2.34 3.115 6.267 4.829 11.06 4.829a17.655 17.655 0 0 0 14-6.373l.065-.078-5.85-4.677-.063.077c-1.983 2.427-3.775 4.3-7.249 4.561a5.464 5.464 0 0 1-4.609-2.259 5.072 5.072 0 0 1-.738-4.893H335.1l.306-1.732c.845-4.8-.044-9.055-2.5-11.986a11.914 11.914 0 0 0-9.506-4.014zm4.572 12.585h-13.163a8.028 8.028 0 0 1 7.749-6.5 5.165 5.165 0 0 1 3.925 1.6 6.515 6.515 0 0 1 1.491 4.9z" class="cls-2" transform="translate(-170.385 -214.399)"/>
                        <path id="패스_4075" d="M375.776 232.492a11.919 11.919 0 0 0-9.5-4.012 19.04 19.04 0 0 0-17.6 12.981c-1.593 5.5-1.1 10.2 1.436 13.564 2.34 3.115 6.268 4.829 11.06 4.829a17.654 17.654 0 0 0 14-6.373l.064-.078-5.85-4.677-.063.077c-2.32 2.842-4.078 4.327-7.249 4.561-.1.008-.209.011-.312.011a5.567 5.567 0 0 1-4.3-2.27 5.072 5.072 0 0 1-.738-4.893h21.246l.305-1.732c.85-4.799-.039-9.056-2.499-11.988zm-4.929 8.574h-13.164a8.028 8.028 0 0 1 7.749-6.5 5.164 5.164 0 0 1 3.925 1.6 6.515 6.515 0 0 1 1.491 4.899z" class="cls-2" transform="translate(-179.63 -214.399)"/>
                        <path id="패스_4076" d="M182.479 232.376l-4.638 26.3H187l5.851-33.183h-2.281a8.563 8.563 0 0 0-8.091 6.883z" class="cls-2" transform="translate(-142.909 -213.82)"/>
                        <path id="패스_4077" d="M153.173 232.376l-4.638 26.3h9.165l5.851-33.183h-2.283a8.562 8.562 0 0 0-8.095 6.883z" class="cls-2" transform="translate(-136.346 -213.82)"/>
                        <path id="패스_4078" d="M192.256 209.706a5.7 5.7 0 0 0-5.388 4.58 3.738 3.738 0 0 0 3.773 4.581 5.7 5.7 0 0 0 5.388-4.581 3.738 3.738 0 0 0-3.773-4.58z" class="cls-2" transform="translate(-144.794 -209.706)"/>
                        <path id="패스_4079" d="M213.7 231.9l1.128-6.4h-1.946a8.981 8.981 0 0 0-8.487 7.214l-4.579 25.969h9.161l2.416-13.7c.892-5.059 4.044-6.99 8.671-7.756l1.914-.318 1.706-9.672s-7.378.2-9.984 4.663z" class="cls-2" transform="translate(-147.673 -213.82)"/>
                        <path id="패스_4080" d="M265.672 232.712l-4.579 25.969h9.161L276.1 225.5h-1.948a8.98 8.98 0 0 0-8.48 7.212z" class="cls-2" transform="translate(-160.712 -213.82)"/>
                        <path id="패스_4081" d="M287.781 232.712l-4.581 25.969h9.161l5.851-33.183h-1.947a8.98 8.98 0 0 0-8.484 7.214z" class="cls-2" transform="translate(-165.44 -213.82)"/>
                        <path id="패스_4082" d="M275.508 209.706a5.7 5.7 0 0 0-5.388 4.58 3.738 3.738 0 0 0 3.772 4.581 5.7 5.7 0 0 0 5.389-4.581 3.738 3.738 0 0 0-3.773-4.58z" class="cls-2" transform="translate(-162.549 -209.706)"/>
                        <path id="패스_4083" d="M243.392 231.9l1.128-6.4h-1.947a8.979 8.979 0 0 0-8.486 7.214l-4.58 25.969h9.162l2.415-13.7c.893-5.059 4.044-6.99 8.672-7.756l1.913-.318 1.706-9.672s-7.375.2-9.983 4.663z" class="cls-2" transform="translate(-154.051 -213.82)"/>
                        <path id="패스_4084" d="M169.133 231.578c1.583-6.134-3.16-11.371-10.6-11.7 0 0-5.419-.183-7.221-.317-8.827-.662-10.527-3.8-10.13-5.967.4-2.188-8.835 6.771-1.416 13.081a4.619 4.619 0 0 1-4.281-2.709 6.821 6.821 0 0 1-.951-3.493c0 .006-3.287 5.109 1.348 7.5 3.222 1.658 33.246 3.609 33.246 3.609z" class="cls-2" transform="translate(-133.407 -210.396)"/>
                    </g>
                </g>
            </g>
        </g>
    </g>
</svg>
