<svg xmlns="http://www.w3.org/2000/svg" width="170" height="42.136" viewBox="0 0 170 42.136">
    <defs>
        <style>
            .cls-1{fill:#226bef}
        </style>
    </defs>
    <g id="그룹_73497" transform="translate(-102 -303.864)">
        <g id="header_logo" transform="translate(102 300)">
            <g id="그룹_1">
                <g id="그룹_70550" transform="translate(0 3.864)">
                    <g id="그룹_69729">
                        <path id="패스_4074" d="M320.625 228.48a16.182 16.182 0 0 0-14.961 11.034c-1.354 4.678-.933 8.666 1.22 11.529 1.989 2.648 5.327 4.1 9.4 4.1a15.006 15.006 0 0 0 11.9-5.417l.055-.066-4.973-3.976-.053.066c-1.685 2.063-3.208 3.659-6.162 3.877a4.644 4.644 0 0 1-3.917-1.92 4.311 4.311 0 0 1-.627-4.159h18.058l.26-1.472c.718-4.078-.037-7.7-2.129-10.189a10.127 10.127 0 0 0-8.071-3.407zm3.886 10.7h-11.19a6.824 6.824 0 0 1 6.587-5.525 4.39 4.39 0 0 1 3.336 1.359 5.537 5.537 0 0 1 1.267 4.163z" class="cls-1" transform="translate(-190.56 -216.511)"/>
                        <path id="패스_4075" d="M371.574 231.89a10.131 10.131 0 0 0-8.075-3.41 16.184 16.184 0 0 0-14.961 11.034c-1.354 4.678-.933 8.666 1.221 11.529 1.989 2.648 5.327 4.1 9.4 4.1a15.006 15.006 0 0 0 11.9-5.417l.055-.066-4.973-3.976-.053.066c-1.972 2.415-3.466 3.678-6.162 3.877-.088.007-.177.009-.265.009a4.732 4.732 0 0 1-3.652-1.93 4.311 4.311 0 0 1-.627-4.159h18.059l.26-1.472c.719-4.075-.036-7.692-2.127-10.185zm-4.189 7.287h-11.19a6.824 6.824 0 0 1 6.587-5.525 4.39 4.39 0 0 1 3.336 1.359 5.538 5.538 0 0 1 1.267 4.166z" class="cls-1" transform="translate(-204.849 -216.511)"/>
                        <path id="패스_4076" d="M181.783 231.345l-3.942 22.355h7.787l4.972-28.2h-1.94a7.278 7.278 0 0 0-6.877 5.845z" class="cls-1" transform="translate(-148.149 -215.571)"/>
                        <path id="패스_4077" d="M152.477 231.345l-3.942 22.355h7.787l4.978-28.2h-1.941a7.278 7.278 0 0 0-6.882 5.845z" class="cls-1" transform="translate(-138.175 -215.571)"/>
                        <path id="패스_4078" d="M191.437 209.706a4.847 4.847 0 0 0-4.58 3.893 3.178 3.178 0 0 0 3.207 3.894 4.847 4.847 0 0 0 4.58-3.894 3.177 3.177 0 0 0-3.207-3.893z" class="cls-1" transform="translate(-151.094 -209.706)"/>
                        <path id="패스_4079" d="M211.62 230.938l.959-5.44h-1.655a7.634 7.634 0 0 0-7.214 6.132l-3.891 22.07h7.787l2.053-11.642c.758-4.3 3.437-5.941 7.37-6.592l1.627-.27 1.45-8.221s-6.273.171-8.486 3.963z" class="cls-1" transform="translate(-155.495 -215.571)"/>
                        <path id="패스_4080" d="M264.985 231.63l-3.892 22.07h7.787l4.973-28.206H272.2a7.633 7.633 0 0 0-7.215 6.136z" class="cls-1" transform="translate(-175.769 -215.571)"/>
                        <path id="패스_4081" d="M287.094 231.63L283.2 253.7h7.787l4.973-28.206h-1.655a7.633 7.633 0 0 0-7.211 6.136z" class="cls-1" transform="translate(-183.105 -215.571)"/>
                        <path id="패스_4082" d="M274.689 209.706a4.846 4.846 0 0 0-4.58 3.893 3.178 3.178 0 0 0 3.206 3.894 4.847 4.847 0 0 0 4.58-3.894 3.177 3.177 0 0 0-3.206-3.893z" class="cls-1" transform="translate(-178.674 -209.706)"/>
                        <path id="패스_4083" d="M241.309 230.938l.959-5.44h-1.655a7.632 7.632 0 0 0-7.213 6.132l-3.892 22.07h7.792l2.052-11.642c.759-4.3 3.437-5.941 7.371-6.592l1.626-.27 1.45-8.221s-6.277.171-8.49 3.963z" class="cls-1" transform="translate(-165.369 -215.571)"/>
                        <path id="패스_4084" d="M163.774 228.83c1.346-5.214-2.686-9.665-9.006-9.944 0 0-4.606-.155-6.138-.27-7.5-.562-8.948-3.233-8.611-5.072.342-1.86-7.509 5.756-1.2 11.119a3.926 3.926 0 0 1-3.639-2.3 5.8 5.8 0 0 1-.808-2.969c0 .005-2.794 4.343 1.146 6.371 2.739 1.409 28.259 3.067 28.259 3.067z" class="cls-1" transform="translate(-133.407 -210.826)"/>
                    </g>
                </g>
            </g>
        </g>
    </g>
</svg>
